<svg clip-rule="evenodd" fill-rule="evenodd" stroke-linecap="round" stroke-linejoin="round" stroke-miterlimit="1.5" viewBox="0 0 127 62" width="127" height="62"
    xmlns="http://www.w3.org/2000/svg">
    <path d="m84.172 23.68c0-1.239-1.378-2.244-3.075-2.244h-74.144c-1.697 0-3.075 1.005-3.075 2.244v23.563c0 1.239 1.378 2.245 3.075 2.245h74.144c1.697 0 3.075-1.006 3.075-2.245z" fill="#fff" fill-opacity="1" stroke="#fff" stroke-width=".25" transform="matrix(1.56572 0 0 2.14563 -5.572 -45.49269)"/>
    <g fill-rule="nonzero" transform="translate(-224.2998 -167.17169)">
        <path d="m240.666 169.518 14 56.5h-14l-14-56.5z" fill="#223a75"/>
        <path d="m298.83 169.518 26.129-.018s1.895.219 2.104.271c1.459.229 22.537 6.25 21.556 27.869 0 0-1.302 22.893-22.22 28.131-.115.029-2.168.25-2.168.25l-25.021.012 7.438-13.766h16.268s.359-.016.672-.094c2.211-.42 9.02-2.984 11.328-14.406 0 0 1.898-10.789-10.133-14.277-.115-.027-1.084-.178-1.203-.203l-16.619-.02-14.238 26.299-4.825-19.566z" fill="#a3c63b"/>
        <path d="m268.791 169.518 14 56.5h-14l-14-56.5z" fill="#223a75"/>
    </g>
</svg>